<?xml version="1.0" standalone="no"?>
<!DOCTYPE svg PUBLIC "-//W3C//DTD SVG 20010904//EN"
 "http://www.w3.org/TR/2001/REC-SVG-20010904/DTD/svg10.dtd">
<svg version="1.0" xmlns="http://www.w3.org/2000/svg"
 width="326.000000pt" height="326.000000pt" viewBox="0 0 326.000000 326.000000"
 preserveAspectRatio="xMidYMid meet">
<metadata>
Created by potrace 1.14, written by Peter Selinger 2001-2017
</metadata>
<g transform="translate(0.000000,326.000000) scale(0.100000,-0.100000)"
fill="#000000" stroke="none">
<path d="M536 3238 c-7 -4 -38 -8 -69 -9 -31 -1 -57 -6 -57 -11 0 -4 -6 -8
-12 -8 -7 0 -42 -14 -78 -32 -87 -45 -207 -165 -248 -249 -65 -135 -63 -86
-60 -1344 3 -1258 -2 -1152 65 -1283 35 -68 173 -212 203 -212 6 0 10 -4 10
-8 0 -11 46 -32 70 -32 11 0 20 -4 20 -8 0 -29 102 -32 1260 -32 1163 0 1170
0 1225 21 170 63 284 176 348 341 l32 83 0 1150 c0 633 -3 1166 -7 1186 -4 20
-12 48 -17 63 -6 14 -7 26 -3 26 4 0 2 4 -3 8 -6 4 -23 32 -39 62 -29 56 -167
200 -191 200 -7 0 -15 4 -17 8 -4 11 -94 52 -112 52 -8 0 -17 4 -20 9 -3 5
-32 11 -63 15 -81 8 -2222 13 -2237 4z"/>
</g>
</svg>
