<?xml version="1.0" standalone="no"?>
<!DOCTYPE svg PUBLIC "-//W3C//DTD SVG 20010904//EN"
 "http://www.w3.org/TR/2001/REC-SVG-20010904/DTD/svg10.dtd">
<svg version="1.0" xmlns="http://www.w3.org/2000/svg"
 width="512.000000pt" height="512.000000pt" viewBox="0 0 512.000000 512.000000"
 preserveAspectRatio="xMidYMid meet">
<metadata>
Created by potrace 1.14, written by Peter Selinger 2001-2017
</metadata>
<g transform="translate(0.000000,512.000000) scale(0.100000,-0.100000)"
fill="#000000" stroke="none">
<path d="M1122 5109 c-103 -20 -195 -98 -232 -196 -19 -52 -20 -76 -19 -616 1
-309 4 -551 6 -537 11 64 47 183 80 260 172 401 525 680 954 754 132 23 202
-8 228 -100 23 -84 33 -258 21 -370 -6 -59 -13 -111 -16 -115 -2 -4 141 -9
319 -12 347 -5 405 -12 510 -61 70 -34 126 -79 173 -139 31 -40 35 -50 23 -59
-11 -8 -11 -9 3 -4 13 4 22 -8 39 -52 33 -88 48 -195 49 -338 l0 -132 33 -48
c117 -170 372 -190 505 -39 127 145 44 384 -133 385 -35 0 -65 -8 -97 -25 -59
-31 -88 -32 -116 -2 -70 74 32 166 193 175 149 8 253 -56 322 -196 36 -71 38
-82 38 -166 0 -108 -18 -169 -73 -241 -127 -168 -367 -227 -564 -138 -32 14
-59 24 -61 22 -1 -2 -13 -24 -26 -49 -83 -154 -244 -252 -420 -253 -93 -1
-178 18 -191 44 -10 18 -30 19 -368 21 l-357 3 3 415 c2 249 0 411 -5 405 -5
-5 -32 -39 -60 -75 -182 -234 -462 -395 -775 -448 -83 -14 -103 -20 -90 -28
14 -10 10 -28 -47 -185 -68 -188 -101 -320 -101 -411 l0 -57 43 29 c90 60 141
74 272 74 102 0 129 -3 179 -23 32 -13 72 -36 89 -51 l32 -28 -65 -21 c-59
-19 -49 -20 31 -5 l30 6 -19 -39 c-50 -96 -164 -187 -281 -224 -74 -24 -202
-29 -263 -11 -21 6 -38 7 -38 4 0 -22 43 -178 66 -242 115 -322 369 -602 677
-749 88 -42 266 -101 304 -101 l23 0 0 465 0 465 28 0 c56 -1 180 -29 252 -57
137 -53 264 -157 345 -283 56 -87 247 -459 241 -469 -3 -4 -23 -15 -44 -25
l-39 -18 18 -65 c10 -36 21 -68 23 -70 3 -3 30 6 60 20 l56 26 38 -70 c20 -39
47 -85 59 -102 77 -108 101 -151 117 -203 9 -33 73 -173 142 -313 142 -286
174 -330 280 -382 288 -142 789 132 854 466 8 41 8 73 2 102 -6 24 -64 142
-131 262 -67 121 -121 223 -121 228 0 5 39 37 86 72 235 174 425 401 555 666
260 531 243 1160 -46 1675 -56 100 -102 152 -148 169 -30 12 -36 4 -52 -67 -3
-18 -21 -48 -38 -66 -18 -19 -38 -43 -45 -53 -7 -10 -10 -11 -7 -3 6 13 4 13
-7 0 -7 -9 -27 -22 -45 -29 -20 -8 -30 -18 -26 -27 3 -8 1 -14 -3 -14 -5 0
-10 89 -11 198 -4 366 -63 624 -198 850 -230 387 -657 598 -1297 642 -173 12
-1665 11 -1726 -1z m3268 -1669 c0 -5 -5 -10 -11 -10 -5 0 -7 5 -4 10 3 6 8
10 11 10 2 0 4 -4 4 -10z m-150 -534 c0 -2 -7 -7 -16 -10 -8 -3 -12 -2 -9 4 6
10 25 14 25 6z m-284 -520 c30 -84 31 -102 5 -79 -11 9 -18 20 -16 23 3 4 -13
27 -35 51 l-39 44 21 23 c27 28 33 22 64 -62z"/>
<path d="M1380 3822 c0 -6 -8 -13 -18 -16 -10 -4 -34 -36 -53 -72 -18 -37 -43
-76 -55 -88 -42 -42 -110 -103 -146 -130 -27 -20 -42 -43 -59 -91 -16 -46 -39
-82 -80 -128 -51 -56 -57 -67 -43 -77 12 -11 23 -4 67 45 28 32 58 70 65 84
20 38 170 251 202 286 40 44 133 186 126 192 -3 4 -6 1 -6 -5z"/>
<path d="M871 3235 c1 -80 2 -86 12 -55 6 19 13 37 17 40 3 3 -2 28 -12 55
l-17 50 0 -90z"/>
<path d="M865 1041 c4 -725 4 -732 25 -776 42 -87 162 -166 306 -202 98 -24
313 -24 417 0 109 26 206 77 261 138 72 80 76 103 76 456 l0 303 -27 6 c-229
51 -396 120 -568 238 -174 119 -345 305 -448 489 l-45 79 3 -731z"/>
<path d="M2503 968 l-42 -9 14 -39 c24 -67 63 -125 125 -184 109 -104 267
-152 417 -127 62 11 105 32 92 45 -10 10 -558 327 -562 325 -1 -1 -21 -5 -44
-11z"/>
</g>
</svg>
